<svg width="20" height="12" viewBox="0 0 20 12" fill="none" xmlns="http://www.w3.org/2000/svg">
<path d="M19.6679 10.6225C19.6448 10.5722 19.6233 10.5304 19.6033 10.497C19.2727 9.8944 18.641 9.15477 17.7084 8.27787L17.6887 8.25781L17.6788 8.24796L17.6689 8.23787H17.6589C17.2356 7.82957 16.9676 7.55502 16.8554 7.4144C16.6501 7.14666 16.604 6.87564 16.7163 6.60103C16.7956 6.39352 17.0934 5.95534 17.6091 5.28586C17.8804 4.93106 18.0953 4.6467 18.2539 4.43246C19.3983 2.89283 19.8944 1.909 19.7422 1.48056L19.6831 1.38043C19.6433 1.32016 19.5408 1.26502 19.3757 1.21472C19.2101 1.16454 18.9985 1.15624 18.7405 1.18969L15.8834 1.20966C15.8371 1.19306 15.771 1.19461 15.6849 1.21472C15.5989 1.23484 15.5559 1.24493 15.5559 1.24493L15.5062 1.27008L15.4667 1.30029C15.4336 1.32027 15.3972 1.35539 15.3575 1.40562C15.318 1.45566 15.2849 1.51438 15.2585 1.58131C14.9475 2.39124 14.5938 3.14428 14.1969 3.84038C13.9521 4.25546 13.7274 4.61519 13.5221 4.91977C13.3171 5.22425 13.1452 5.44858 13.0064 5.59238C12.8674 5.73632 12.742 5.85163 12.6293 5.93874C12.5168 6.02588 12.4309 6.06271 12.3715 6.04923C12.3119 6.03577 12.2558 6.0224 12.2026 6.00904C12.1101 5.94876 12.0357 5.86679 11.9796 5.76305C11.9232 5.6593 11.8852 5.52873 11.8654 5.37142C11.8457 5.21401 11.834 5.07862 11.8307 4.96478C11.8276 4.85109 11.829 4.69027 11.8357 4.48278C11.8426 4.27519 11.8457 4.13473 11.8457 4.06109C11.8457 3.80669 11.8506 3.53059 11.8604 3.23273C11.8704 2.93486 11.8785 2.69885 11.8853 2.52499C11.892 2.35095 11.8952 2.16681 11.8952 1.97269C11.8952 1.77856 11.8835 1.62632 11.8604 1.51583C11.8376 1.40547 11.8026 1.29835 11.7565 1.19451C11.7101 1.09076 11.6422 1.01051 11.5532 0.953542C11.4638 0.896638 11.3529 0.851483 11.2208 0.817934C10.8702 0.737647 10.4238 0.694215 9.88139 0.687464C8.65124 0.6741 7.86079 0.754492 7.51028 0.928532C7.37138 1.00207 7.24572 1.10254 7.1333 1.22963C7.01425 1.37695 6.99764 1.45734 7.08358 1.47057C7.48049 1.53074 7.76148 1.67468 7.92681 1.90225L7.98645 2.02283C8.0328 2.10984 8.07908 2.26387 8.12536 2.48472C8.17164 2.70557 8.20149 2.94988 8.21461 3.2175C8.24765 3.70622 8.24765 4.12457 8.21461 4.47259C8.1815 4.82074 8.15021 5.09177 8.12036 5.2859C8.09051 5.48002 8.04591 5.63732 7.98645 5.75777C7.92681 5.87826 7.88721 5.9519 7.86729 5.97862C7.84749 6.00534 7.83094 6.02219 7.81782 6.02881C7.73182 6.06214 7.64244 6.07913 7.54988 6.07913C7.4572 6.07913 7.34484 6.03222 7.21255 5.93846C7.08033 5.8447 6.94312 5.71592 6.8009 5.5519C6.65869 5.38785 6.4983 5.15859 6.31965 4.8641C6.14115 4.56961 5.95594 4.22156 5.76413 3.81995L5.60543 3.5287C5.50623 3.34132 5.37071 3.06849 5.19874 2.71046C5.02666 2.35228 4.87457 2.00581 4.74235 1.67113C4.6895 1.53056 4.6101 1.42355 4.50429 1.34991L4.45463 1.3197C4.42163 1.29297 4.36863 1.26459 4.29594 1.23435C4.22314 1.20414 4.14718 1.18248 4.06775 1.16915L1.34942 1.18913C1.07164 1.18913 0.883161 1.25281 0.783923 1.38001L0.744204 1.44019C0.724363 1.4737 0.714355 1.52722 0.714355 1.6009C0.714355 1.67454 0.734197 1.76492 0.773912 1.87193C1.17074 2.81582 1.60228 3.72612 2.06854 4.60298C2.53479 5.47984 2.93996 6.18617 3.28379 6.72134C3.6277 7.25694 3.97823 7.76239 4.33542 8.2375C4.69259 8.71279 4.92902 9.01737 5.0447 9.15118C5.16051 9.28524 5.25149 9.38542 5.31761 9.45236L5.56568 9.69329C5.72441 9.85397 5.9575 10.0464 6.26506 10.2706C6.57269 10.495 6.91326 10.7158 7.28694 10.9335C7.66068 11.1509 8.0955 11.3283 8.59159 11.4654C9.08762 11.6028 9.57041 11.6579 10.04 11.6313H11.181C11.4124 11.6111 11.5877 11.5374 11.7068 11.4103L11.7463 11.36C11.7729 11.3201 11.7977 11.258 11.8207 11.1745C11.8438 11.0908 11.8554 10.9986 11.8554 10.8984C11.8486 10.6106 11.8703 10.3512 11.9197 10.1203C11.9692 9.88951 12.0255 9.71545 12.0886 9.59824C12.1516 9.48115 12.2227 9.38233 12.3018 9.3022C12.3811 9.22189 12.4376 9.17329 12.4707 9.15657C12.5037 9.13973 12.53 9.12827 12.5498 9.1214C12.7085 9.0679 12.8954 9.11973 13.1105 9.27719C13.3255 9.43446 13.5272 9.62871 13.7158 9.85954C13.9043 10.0906 14.1307 10.3498 14.3952 10.6376C14.6599 10.9255 14.8914 11.1395 15.0897 11.2802L15.2881 11.4007C15.4205 11.4811 15.5925 11.5547 15.8042 11.6216C16.0155 11.6886 16.2006 11.7053 16.3596 11.6719L18.8992 11.6317C19.1504 11.6317 19.3459 11.5896 19.4846 11.5062C19.6235 11.4224 19.706 11.3303 19.7326 11.2301C19.7592 11.1297 19.7606 11.0158 19.7377 10.8885C19.7141 10.7615 19.6909 10.6727 19.6679 10.6225Z" fill="#F47C0C"/>
</svg>
