<svg width="19" height="20" viewBox="0 0 19 20" fill="none" xmlns="http://www.w3.org/2000/svg">
<path d="M17.621 3.53589C17.4445 3.05189 17.1627 2.61382 16.7969 2.25423C16.4415 1.88398 16.0086 1.59904 15.5301 1.42043C15.1419 1.26789 14.5586 1.08631 13.4845 1.03685C12.3226 0.983229 11.9742 0.97168 9.03237 0.97168C6.09041 0.97168 5.74201 0.982939 4.58032 1.03655C3.50616 1.08631 2.92267 1.26789 2.53477 1.42043C2.05609 1.59904 1.6231 1.88398 1.26797 2.25423C0.902014 2.61382 0.620369 3.0516 0.443548 3.53589C0.292773 3.92864 0.113298 4.51897 0.0644038 5.60574C0.0114166 6.78105 0 7.13352 0 10.11C0 13.0863 0.0114166 13.4388 0.0644038 14.6143C0.113298 15.7011 0.292773 16.2912 0.443548 16.6839C0.620369 17.1683 0.901726 17.606 1.26768 17.9656C1.6231 18.3359 2.05581 18.6207 2.53446 18.7993C2.92268 18.9522 3.50616 19.1337 4.58032 19.1832C5.74201 19.2369 6.09009 19.2481 9.03205 19.2481C11.9743 19.2481 12.3227 19.2369 13.4842 19.1832C14.5583 19.1337 15.1419 18.9522 15.5301 18.7993C16.4909 18.4244 17.2503 17.656 17.621 16.6839C17.7717 16.2912 17.9511 15.7011 18.0004 14.6143C18.0533 13.4388 18.0645 13.0863 18.0645 10.11C18.0645 7.13352 18.0533 6.78105 18.0004 5.60574C17.9515 4.51897 17.7721 3.92864 17.621 3.53589ZM9.03237 15.8335C5.90766 15.8335 3.37471 13.271 3.37471 10.1097C3.37471 6.94846 5.90766 4.38598 9.03237 4.38598C12.1568 4.38598 14.6899 6.94846 14.6899 10.1097C14.6899 13.271 12.1568 15.8335 9.03237 15.8335ZM14.9134 5.49732C14.1834 5.49732 13.5913 4.8984 13.5913 4.15969C13.5913 3.42096 14.1834 2.82204 14.9134 2.82204C15.6436 2.82204 16.2355 3.42096 16.2355 4.15969C16.2354 4.8984 15.6436 5.49732 14.9134 5.49732Z" fill="#F47C0C"/>
</svg>
