<svg width="20" height="18" viewBox="0 0 20 18" fill="none" xmlns="http://www.w3.org/2000/svg">
<path d="M0.338893 9.06204L4.75988 10.7286L6.47108 16.2869C6.58057 16.6429 7.01157 16.7745 7.29764 16.5383L9.76195 14.5091C10.0203 14.2966 10.3882 14.2859 10.6582 14.4839L15.103 17.7432C15.409 17.9679 15.8425 17.7985 15.9193 17.425L19.1753 1.60598C19.2591 1.19799 18.8622 0.857633 18.4776 1.00788L0.333713 8.07737C-0.11404 8.25178 -0.110139 8.89206 0.338893 9.06204ZM6.1953 9.8414L14.8355 4.46657C14.9909 4.37025 15.1506 4.58232 15.0173 4.70725L7.88653 11.402C7.6359 11.6377 7.47422 11.953 7.42843 12.2953L7.18552 14.1135C7.15336 14.3562 6.81573 14.3803 6.74941 14.1454L5.81521 10.83C5.70822 10.4518 5.86414 10.0479 6.1953 9.8414Z" fill="#F47C0C"/>
</svg>
