<svg width="13" height="25" viewBox="0 0 13 25" fill="none" xmlns="http://www.w3.org/2000/svg">
<path d="M11.6606 0.976541L8.75427 0.97168C5.48917 0.97168 3.37912 3.22841 3.37912 6.7213V9.37226H0.456984C0.204477 9.37226 0 9.58566 0 9.84889V13.6899C0 13.953 0.20471 14.1662 0.456984 14.1662H3.37912V23.8581C3.37912 24.1214 3.58359 24.3345 3.8361 24.3345H7.64865C7.90116 24.3345 8.10564 24.1211 8.10564 23.8581V14.1662H11.5223C11.7748 14.1662 11.9792 13.953 11.9792 13.6899L11.9807 9.84889C11.9807 9.7225 11.9324 9.60146 11.8468 9.51202C11.7613 9.42258 11.6447 9.37226 11.5234 9.37226H8.10564V7.12501C8.10564 6.04489 8.35255 5.49657 9.70228 5.49657L11.6601 5.49584C11.9123 5.49584 12.1168 5.28244 12.1168 5.01945V1.45292C12.1168 1.19018 11.9126 0.977026 11.6606 0.976541Z" fill="#F47C0C"/>
</svg>
