<svg width="10" height="16" viewBox="0 0 10 16" fill="none" xmlns="http://www.w3.org/2000/svg">
<path d="M9.44437 9.13964C9.43312 9.14902 9.41812 9.15277 9.40687 9.16214L2.175 15.7078C1.76812 16.0734 1.10812 16.0734 0.70125 15.7078C0.6975 15.704 0.695625 15.7003 0.69375 15.6965C0.595229 15.6152 0.51566 15.5133 0.460604 15.398C0.405547 15.2827 0.376333 15.1568 0.375 15.029L0.375 1.93589C0.377102 1.80579 0.407746 1.67774 0.464768 1.56078C0.52179 1.44382 0.603799 1.34081 0.705 1.25902L0.70125 1.25527C0.905973 1.07833 1.16753 0.980957 1.43812 0.980957C1.70872 0.980957 1.97028 1.07833 2.175 1.25527L9.44437 7.81589C9.54011 7.89757 9.61699 7.99904 9.66971 8.11331C9.72243 8.22758 9.74973 8.35192 9.74973 8.47777C9.74973 8.60361 9.72243 8.72796 9.66971 8.84223C9.61699 8.9565 9.54011 9.05797 9.44437 9.13964Z" fill="#333333"/>
</svg>
