<svg width="80" height="80" viewBox="0 0 80 80" fill="none" xmlns="http://www.w3.org/2000/svg">
<path d="M39.9994 6.66663C33.4067 6.66663 26.962 8.62159 21.4804 12.2843C15.9987 15.947 11.7263 21.153 9.20338 27.2438C6.68046 33.3347 6.02035 40.0369 7.30652 46.503C8.5927 52.969 11.7674 58.9084 16.4291 63.5702C21.0909 68.2319 27.0303 71.4066 33.4964 72.6928C39.9624 73.979 46.6646 73.3189 52.7555 70.796C58.8463 68.273 64.0523 64.0006 67.715 58.519C71.3777 53.0373 73.3327 46.5927 73.3327 40C73.3327 35.6226 72.4705 31.288 70.7953 27.2438C69.1202 23.1997 66.6649 19.525 63.5696 16.4297C60.4743 13.3344 56.7997 10.8791 52.7555 9.20398C48.7113 7.52882 44.3768 6.66663 39.9994 6.66663ZM39.9994 60C39.3401 60 38.6956 59.8045 38.1475 59.4382C37.5993 59.0719 37.1721 58.5513 36.9198 57.9422C36.6675 57.3331 36.6015 56.6629 36.7301 56.0163C36.8587 55.3697 37.1762 54.7758 37.6423 54.3096C38.1085 53.8434 38.7025 53.526 39.3491 53.3973C39.9957 53.2687 40.6659 53.3347 41.275 53.587C41.8841 53.8393 42.4047 54.2666 42.7709 54.8147C43.1372 55.3629 43.3327 56.0074 43.3327 56.6666C43.3327 57.5507 42.9815 58.3985 42.3564 59.0237C41.7313 59.6488 40.8834 60 39.9994 60ZM43.3327 42.8V46.6666C43.3327 47.5507 42.9815 48.3985 42.3564 49.0237C41.7313 49.6488 40.8834 50 39.9994 50C39.1153 50 38.2675 49.6488 37.6423 49.0237C37.0172 48.3985 36.666 47.5507 36.666 46.6666V40C36.666 39.1159 37.0172 38.2681 37.6423 37.6429C38.2675 37.0178 39.1153 36.6666 39.9994 36.6666C40.9883 36.6666 41.955 36.3734 42.7772 35.824C43.5995 35.2746 44.2403 34.4937 44.6188 33.58C44.9972 32.6664 45.0962 31.6611 44.9033 30.6912C44.7104 29.7213 44.2342 28.8304 43.5349 28.1311C42.8356 27.4318 41.9447 26.9556 40.9748 26.7627C40.0049 26.5698 38.9996 26.6688 38.0859 27.0472C37.1723 27.4257 36.3914 28.0665 35.842 28.8888C35.2926 29.711 34.9994 30.6777 34.9994 31.6666C34.9994 32.5507 34.6482 33.3985 34.0231 34.0236C33.3979 34.6488 32.5501 35 31.666 35C30.782 35 29.9341 34.6488 29.309 34.0236C28.6839 33.3985 28.3327 32.5507 28.3327 31.6666C28.324 29.501 28.9182 27.3756 30.0489 25.5285C31.1796 23.6815 32.8021 22.1856 34.7348 21.2083C36.6674 20.2311 38.8339 19.811 40.9918 19.9953C43.1496 20.1795 45.2135 20.9607 46.9525 22.2515C48.6916 23.5422 50.037 25.2915 50.8382 27.3035C51.6394 29.3155 51.8647 31.5109 51.489 33.6437C51.1133 35.7765 50.1513 37.7627 48.7108 39.3798C47.2703 40.9969 45.4081 42.1812 43.3327 42.8Z" fill="#F47C0C"/>
</svg>
