<svg width="24" height="24" viewBox="0 0 24 24" fill="none" xmlns="http://www.w3.org/2000/svg">
<path d="M2.88674 1.99309C2.69768 2.01316 2.51825 2.0867 2.36949 2.2051C2.22073 2.32349 2.1088 2.48184 2.04682 2.66158C1.98484 2.84132 1.97538 3.035 2.01955 3.21993C2.06371 3.40485 2.15968 3.57336 2.29619 3.70569L20.2932 21.7101C20.3863 21.8033 20.4968 21.8772 20.6184 21.9276C20.74 21.978 20.8703 22.004 21.002 22.004C21.1337 22.004 21.264 21.9781 21.3857 21.9278C21.5073 21.8774 21.6178 21.8036 21.7109 21.7105C21.804 21.6174 21.8778 21.5069 21.9282 21.3852C21.9786 21.2636 22.0045 21.1332 22.0044 21.0016C22.0044 20.8699 21.9784 20.7396 21.928 20.6179C21.8776 20.4963 21.8037 20.3858 21.7106 20.2928L3.70613 2.29575C3.60134 2.1866 3.47315 2.10266 3.33122 2.05023C3.18929 1.99781 3.03732 1.97827 2.88674 1.99309Z" fill="white"/>
<path d="M20.9798 1.9936C20.7204 2.00157 20.4742 2.1101 20.2933 2.29625L2.29624 20.2933C2.19827 20.3847 2.11967 20.4949 2.06512 20.6174C2.01057 20.7398 1.98117 20.8719 1.97869 21.0059C1.9762 21.1399 2.00067 21.273 2.05065 21.3974C2.10062 21.5217 2.17508 21.6348 2.26959 21.7298C2.36411 21.8248 2.47676 21.8998 2.60085 21.9505C2.72494 22.0011 2.85794 22.0262 2.99195 22.0245C3.12595 22.0227 3.25823 21.994 3.38093 21.9401C3.50362 21.8861 3.61423 21.8081 3.70618 21.7106L21.7106 3.7062C21.8539 3.56523 21.9514 3.38436 21.9904 3.18717C22.0293 2.98998 22.008 2.78562 21.9291 2.60074C21.8502 2.41587 21.7174 2.25905 21.5481 2.15075C21.3788 2.04245 21.1807 1.98768 20.9798 1.9936Z" fill="white"/>
</svg>
