<svg width="90" height="85" viewBox="0 0 90 85" fill="none" xmlns="http://www.w3.org/2000/svg">
<path d="M76.45 69.1151H18.6906C17.7375 69.1151 16.975 68.7338 16.5937 67.9713C16.0219 67.2088 16.0219 66.2557 16.4031 65.4932L21.3594 52.912L16.4031 6.0182H0.390625V0.680664H18.6906C20.025 0.680664 21.1687 1.63381 21.3594 2.96819L26.6969 52.7213C26.6969 53.1026 26.6969 53.4838 26.5062 54.0557L22.6937 63.5869H76.45V69.1151Z" fill="#F47C0C"/>
<path d="M24.6 55.9627L23.4563 50.8158L84.2656 38.2346V16.694H21.3594V11.3564H86.9344C88.4594 11.3564 89.6031 12.5002 89.6031 14.0252V40.3315C89.6031 41.6658 88.65 42.619 87.5063 42.8096L24.6 55.9627Z" fill="#F47C0C"/>
<path d="M79.1172 84.9375C73.3984 84.9375 68.6328 80.1719 68.6328 74.4531C68.6328 68.7344 73.3984 63.9688 79.1172 63.9688C84.8359 63.9688 89.6016 68.7344 89.6016 74.4531C89.6016 80.1719 84.8359 84.9375 79.1172 84.9375ZM79.1172 69.1156C76.2578 69.1156 73.7797 71.4031 73.7797 74.4531C73.7797 77.5031 76.0672 79.7906 79.1172 79.7906C82.1672 79.7906 84.4547 77.5031 84.4547 74.4531C84.4547 71.4031 81.9766 69.1156 79.1172 69.1156Z" fill="#F47C0C"/>
<path d="M16.2109 84.9375C10.4922 84.9375 5.72656 80.1719 5.72656 74.4531C5.72656 68.7344 10.4922 63.9688 16.2109 63.9688C21.9297 63.9688 26.6953 68.7344 26.6953 74.4531C26.6953 80.1719 21.9297 84.9375 16.2109 84.9375ZM16.2109 69.1156C13.3516 69.1156 10.8734 71.4031 10.8734 74.4531C10.8734 77.5031 13.1609 79.7906 16.2109 79.7906C19.2609 79.7906 21.5484 77.5031 21.5484 74.4531C21.5484 71.4031 19.0703 69.1156 16.2109 69.1156Z" fill="#F47C0C"/>
</svg>
