<svg width="11" height="10" viewBox="0 0 11 10" fill="none" xmlns="http://www.w3.org/2000/svg">
<path d="M9.875 4.37451H6.125V0.624512C6.125 0.458751 6.05915 0.29978 5.94194 0.18257C5.82473 0.0653599 5.66576 -0.000488281 5.5 -0.000488281C5.33424 -0.000488281 5.17527 0.0653599 5.05806 0.18257C4.94085 0.29978 4.875 0.458751 4.875 0.624512V4.37451H1.125C0.95924 4.37451 0.800269 4.44036 0.683058 4.55757C0.565848 4.67478 0.5 4.83375 0.5 4.99951C0.5 5.16527 0.565848 5.32424 0.683058 5.44145C0.800269 5.55866 0.95924 5.62451 1.125 5.62451H4.875V9.37451C4.875 9.54027 4.94085 9.69924 5.05806 9.81645C5.17527 9.93366 5.33424 9.99951 5.5 9.99951C5.66576 9.99951 5.82473 9.93366 5.94194 9.81645C6.05915 9.69924 6.125 9.54027 6.125 9.37451V5.62451H9.875C10.0408 5.62451 10.1997 5.55866 10.3169 5.44145C10.4342 5.32424 10.5 5.16527 10.5 4.99951C10.5 4.83375 10.4342 4.67478 10.3169 4.55757C10.1997 4.44036 10.0408 4.37451 9.875 4.37451Z" fill="#F47C0C"/>
</svg>
