<svg width="33" height="33" viewBox="0 0 33 33" fill="none" xmlns="http://www.w3.org/2000/svg">
<path d="M25.0075 23.5642H9.38408C9.12627 23.5642 8.92002 23.461 8.81689 23.2548C8.66221 23.0485 8.66221 22.7907 8.76533 22.5845L10.106 19.1814L8.76533 6.49698H4.43408V5.05322H9.38408C9.74502 5.05322 10.0544 5.31104 10.106 5.67198L11.5497 19.1298C11.5497 19.2329 11.5497 19.336 11.4981 19.4907L10.4669 22.0688H25.0075V23.5642Z" fill="black"/>
<path d="M10.9825 20.0065L10.6731 18.6144L27.1216 15.2112V9.38468H10.106V7.94092H27.8435C28.256 7.94092 28.5653 8.25029 28.5653 8.66279V15.7784C28.5653 16.1394 28.3075 16.3972 27.9981 16.4487L10.9825 20.0065Z" fill="black"/>
<path d="M25.7295 27.8438C24.1826 27.8438 22.8936 26.5547 22.8936 25.0078C22.8936 23.4609 24.1826 22.1719 25.7295 22.1719C27.2764 22.1719 28.5654 23.4609 28.5654 25.0078C28.5654 26.5547 27.2764 27.8438 25.7295 27.8438ZM25.7295 23.5641C24.9561 23.5641 24.2857 24.1828 24.2857 25.0078C24.2857 25.8328 24.9045 26.4516 25.7295 26.4516C26.5545 26.4516 27.1732 25.8328 27.1732 25.0078C27.1732 24.1828 26.5029 23.5641 25.7295 23.5641Z" fill="black"/>
<path d="M8.71387 27.8438C7.16699 27.8438 5.87793 26.5547 5.87793 25.0078C5.87793 23.4609 7.16699 22.1719 8.71387 22.1719C10.2607 22.1719 11.5498 23.4609 11.5498 25.0078C11.5498 26.5547 10.2607 27.8438 8.71387 27.8438ZM8.71387 23.5641C7.94043 23.5641 7.27012 24.1828 7.27012 25.0078C7.27012 25.8328 7.88887 26.4516 8.71387 26.4516C9.53887 26.4516 10.1576 25.8328 10.1576 25.0078C10.1576 24.1828 9.48731 23.5641 8.71387 23.5641Z" fill="black"/>
</svg>
