<svg width="26" height="26" viewBox="0 0 26 26" fill="none" xmlns="http://www.w3.org/2000/svg">
<path d="M9.80005 18.3547C11.9635 18.3547 14.0011 17.5644 15.6017 16.1342L24.2173 24.75L24.9243 24.043L16.308 15.4264C19.3617 12.0031 19.2564 6.73737 15.9724 3.45337C14.3237 1.80444 12.1316 0.896484 9.80005 0.896484C7.46851 0.896484 5.27637 1.80444 3.62769 3.45337C0.224365 6.85669 0.224365 12.3945 3.62769 15.7979C5.27637 17.4468 7.46851 18.3547 9.80005 18.3547ZM4.33472 4.1604C5.79468 2.70044 7.7356 1.89648 9.80005 1.89648C11.8645 1.89648 13.8054 2.70044 15.2654 4.1604C18.2788 7.17383 18.2788 12.0774 15.2654 15.0908C13.8054 16.5508 11.8645 17.3547 9.80005 17.3547C7.7356 17.3547 5.79468 16.5508 4.33472 15.0908C1.32129 12.0774 1.32129 7.17383 4.33472 4.1604Z" stroke="black"/>
</svg>
