<svg width="22" height="18" viewBox="0 0 22 18" fill="none" xmlns="http://www.w3.org/2000/svg">
<g clip-path="url(#clip0)">
<path d="M22.0002 6.5544C22.0002 6.40544 22.0002 6.25648 21.8535 6.182L14.7402 0.298151C14.5935 0.149192 14.3002 0.149192 14.1535 0.37263C14.0069 0.521588 14.0069 0.819505 14.2269 0.968463L20.6069 6.25648H2.6402C2.4202 6.182 2.2002 6.40544 2.2002 6.62888C2.2002 6.85232 2.4202 7.07575 2.6402 7.07575H21.6335C21.7802 7.07575 22.0002 6.85232 22.0002 6.5544C22.0002 6.62888 22.0002 6.5544 22.0002 6.5544Z" fill="#E30613"/>
<path d="M19.36 10.7993H0.44C0.22 10.7993 0 11.0228 0 11.2462V11.3207C0 11.4696 0 11.6186 0.146667 11.6931L7.26 17.5769C7.33333 17.6514 7.40667 17.6514 7.55333 17.6514C7.7 17.6514 7.77333 17.5769 7.84667 17.5024C7.99333 17.3535 7.99333 17.0556 7.77333 16.9066L1.39333 11.6186H19.36C19.58 11.6186 19.8 11.3951 19.8 11.1717C19.8 10.9483 19.58 10.7993 19.36 10.7993Z" fill="#E30613"/>
</g>
<defs>
<clipPath id="clip0">
<rect width="22" height="17.875" fill="white"/>
</clipPath>
</defs>
</svg>
