<svg width="50" height="50" viewBox="0 0 50 50" fill="none" xmlns="http://www.w3.org/2000/svg">
<path d="M9.01573 40.837C9.20356 41.0244 9.45811 41.1295 9.72344 41.1293C9.98877 41.1292 10.2432 41.0236 10.4307 40.836L24.7227 26.527L39.0147 40.836C39.2021 41.0237 39.4564 41.1294 39.7217 41.1297C39.9869 41.13 40.2415 41.0249 40.4292 40.8375C40.617 40.6501 40.7226 40.3958 40.7229 40.1305C40.7232 39.8653 40.6181 39.6107 40.4307 39.423L26.1527 25.129L40.4297 10.836C40.5252 10.7437 40.6013 10.6333 40.6536 10.5112C40.7059 10.3892 40.7334 10.2579 40.7345 10.1252C40.7355 9.99238 40.7101 9.86072 40.6598 9.73786C40.6094 9.615 40.5351 9.50341 40.4411 9.40958C40.3471 9.31576 40.2354 9.24158 40.1125 9.19139C39.9896 9.14119 39.8579 9.11598 39.7251 9.11723C39.5923 9.11848 39.4611 9.14616 39.3392 9.19865C39.2172 9.25114 39.1069 9.3274 39.0147 9.42297L24.7217 23.732L10.4297 9.42297C10.3376 9.3274 10.2273 9.25114 10.1053 9.19865C9.98333 9.14616 9.85213 9.11848 9.71935 9.11723C9.58657 9.11598 9.45488 9.14119 9.33195 9.19139C9.20902 9.24158 9.09731 9.31576 9.00335 9.40958C8.9094 9.50341 8.83506 9.615 8.7847 9.73786C8.73433 9.86072 8.70893 9.99238 8.70999 10.1252C8.71105 10.2579 8.73854 10.3892 8.79086 10.5112C8.84319 10.6333 8.91929 10.7437 9.01473 10.836L23.2907 25.129L9.01473 39.423C8.82739 39.6106 8.72226 39.865 8.72244 40.1302C8.72263 40.3953 8.82813 40.6496 9.01573 40.837Z" fill="#BCC5CD"/>
</svg>
