<svg width="22" height="18" viewBox="0 0 22 18" fill="none" xmlns="http://www.w3.org/2000/svg">
<g clip-path="url(#clip0)">
<path d="M0.326132 5.11927C0.244651 5.11927 0.163169 5.07798 0.122428 5.0367C0.000206165 4.91284 0.000206165 4.70642 0.122428 4.58257C3.01502 1.61009 6.88539 0 11.0002 0C15.115 0 18.9854 1.61009 21.9187 4.58257C22.0409 4.70642 22.0409 4.91284 21.9187 5.0367C21.7965 5.16055 21.5928 5.16055 21.4706 5.0367C18.7002 2.18807 14.9521 0.619266 11.0002 0.619266C7.04835 0.619266 3.30021 2.18807 0.529836 4.99541C0.448354 5.07798 0.366873 5.11927 0.326132 5.11927Z" fill="#E30613"/>
<path d="M3.25924 8.09167C3.17776 8.09167 3.09627 8.05039 3.05553 8.0091C2.93331 7.88525 2.93331 7.67883 3.05553 7.55497C5.17405 5.40819 7.98516 4.21094 11 4.21094C14.0148 4.21094 16.8259 5.40819 18.9444 7.55497C19.0666 7.67883 19.0666 7.88525 18.9444 8.0091C18.8222 8.13296 18.6185 8.13296 18.4963 8.0091C16.5 5.98617 13.8518 4.87149 11 4.87149C8.14813 4.87149 5.49998 5.98617 3.46294 8.05039C3.4222 8.09167 3.34072 8.09167 3.25924 8.09167Z" fill="#E30613"/>
<path d="M6.39644 11.2705C6.31496 11.2705 6.23348 11.2292 6.19274 11.1879C6.07052 11.0641 6.07052 10.8577 6.19274 10.7338C8.88163 8.05032 13.2001 8.05032 15.889 10.7338C16.0113 10.8577 16.0113 11.0641 15.889 11.1879C15.7668 11.3118 15.5631 11.3118 15.4409 11.1879C12.9964 8.71087 9.04459 8.71087 6.64089 11.1879C6.51867 11.2292 6.47793 11.2705 6.39644 11.2705Z" fill="#E30613"/>
<path d="M11.0002 17.9999C10.3891 17.9999 9.77795 17.7522 9.3298 17.2981C8.88165 16.844 8.63721 16.266 8.63721 15.6054C8.63721 14.9449 8.88165 14.3669 9.3298 13.9128C9.77795 13.4586 10.3891 13.2109 11.0002 13.2109C11.6113 13.2109 12.2224 13.4586 12.6705 13.9128C13.1187 14.3669 13.3631 14.9449 13.3631 15.6054C13.3631 16.2247 13.1187 16.844 12.6705 17.2981C12.2224 17.7522 11.652 17.9999 11.0002 17.9999ZM11.0002 13.8302C10.552 13.8302 10.1039 13.9953 9.77795 14.3669C9.45202 14.6972 9.24832 15.1513 9.24832 15.6054C9.24832 16.0596 9.41128 16.5137 9.77795 16.844C10.1039 17.1742 10.552 17.3807 11.0002 17.3807C11.4483 17.3807 11.8965 17.2155 12.2224 16.844C12.5483 16.5137 12.752 16.0596 12.752 15.6054C12.752 15.1513 12.5891 14.6972 12.2224 14.3669C11.8965 13.9953 11.4891 13.8302 11.0002 13.8302Z" fill="#E30613"/>
</g>
<defs>
<clipPath id="clip0">
<rect width="22" height="18" fill="white"/>
</clipPath>
</defs>
</svg>
