<svg width="80" height="81" viewBox="0 0 80 81" fill="none" xmlns="http://www.w3.org/2000/svg">
<circle cx="40" cy="40.0615" r="28" fill="white"/>
<path d="M39.9999 6.72827C33.4071 6.72827 26.9625 8.68324 21.4808 12.346C15.9992 16.0087 11.7268 21.2146 9.20387 27.3055C6.68095 33.3964 6.02084 40.0986 7.30701 46.5646C8.59318 53.0307 11.7679 58.9701 16.4296 63.6318C21.0914 68.2936 27.0308 71.4683 33.4968 72.7545C39.9629 74.0406 46.6651 73.3805 52.756 70.8576C58.8468 68.3347 64.0528 64.0623 67.7155 58.5806C71.3782 53.099 73.3332 46.6543 73.3332 40.0616C73.3332 35.6842 72.471 31.3497 70.7958 27.3055C69.1207 23.2613 66.6654 19.5867 63.5701 16.4914C60.4748 13.3961 56.8002 10.9408 52.756 9.26562C48.7118 7.59046 44.3772 6.72827 39.9999 6.72827ZM39.9999 60.0616C39.3406 60.0616 38.6961 59.8661 38.148 59.4998C37.5998 59.1336 37.1725 58.613 36.9203 58.0039C36.668 57.3948 36.6019 56.7246 36.7306 56.078C36.8592 55.4314 37.1767 54.8374 37.6428 54.3713C38.109 53.9051 38.7029 53.5876 39.3496 53.459C39.9962 53.3304 40.6664 53.3964 41.2755 53.6487C41.8846 53.901 42.4051 54.3282 42.7714 54.8764C43.1377 55.4245 43.3332 56.069 43.3332 56.7283C43.3332 57.6123 42.982 58.4602 42.3569 59.0853C41.7318 59.7104 40.8839 60.0616 39.9999 60.0616ZM43.3332 42.8616V46.7283C43.3332 47.6123 42.982 48.4602 42.3569 49.0853C41.7318 49.7104 40.8839 50.0616 39.9999 50.0616C39.1158 50.0616 38.268 49.7104 37.6428 49.0853C37.0177 48.4602 36.6665 47.6123 36.6665 46.7283V40.0616C36.6665 39.1776 37.0177 38.3297 37.6428 37.7046C38.268 37.0795 39.1158 36.7283 39.9999 36.7283C40.9888 36.7283 41.9555 36.435 42.7777 35.8856C43.5999 35.3362 44.2408 34.5553 44.6193 33.6417C44.9977 32.7281 45.0967 31.7227 44.9038 30.7528C44.7109 29.7829 44.2346 28.892 43.5354 28.1927C42.8361 27.4935 41.9452 27.0173 40.9753 26.8243C40.0054 26.6314 39.0001 26.7304 38.0864 27.1089C37.1728 27.4873 36.3919 28.1282 35.8425 28.9504C35.2931 29.7727 34.9999 30.7394 34.9999 31.7283C34.9999 32.6123 34.6487 33.4602 34.0235 34.0853C33.3984 34.7104 32.5506 35.0616 31.6665 35.0616C30.7825 35.0616 29.9346 34.7104 29.3095 34.0853C28.6844 33.4602 28.3332 32.6123 28.3332 31.7283C28.3245 29.5626 28.9187 27.4373 30.0494 25.5902C31.1801 23.7431 32.8026 22.2472 34.7352 21.27C36.6679 20.2927 38.8344 19.8727 40.9922 20.0569C43.1501 20.2412 45.214 21.0224 46.953 22.3131C48.6921 23.6038 50.0375 25.3531 50.8387 27.3652C51.6399 29.3772 51.8652 31.5725 51.4895 33.7053C51.1138 35.8382 50.1518 37.8243 48.7113 39.4415C47.2708 41.0586 45.4086 42.2428 43.3332 42.8616Z" fill="#F47C0C"/>
</svg>
