<svg width="20" height="20" viewBox="0 0 20 20" fill="none" xmlns="http://www.w3.org/2000/svg">
<path d="M1.34913 8.86274C1.26477 8.8515 1.1836 8.82316 1.11058 8.77944C1.03757 8.73573 0.974253 8.67756 0.924513 8.60851C0.874773 8.53946 0.839659 8.46098 0.821322 8.37788C0.802985 8.29478 0.801812 8.20881 0.817875 8.12524C0.842875 8.01274 0.867875 7.90024 0.892875 7.78774C0.912014 7.70259 0.948771 7.6224 1.00078 7.55233C1.05279 7.48225 1.1189 7.42384 1.19485 7.38086C1.2708 7.33788 1.35491 7.31128 1.44176 7.30278C1.52861 7.29428 1.61628 7.30405 1.69913 7.33149C1.84639 7.38041 1.9702 7.48237 2.04644 7.61754C2.12269 7.7527 2.14592 7.91139 2.11163 8.06274C2.08246 8.17524 2.05746 8.28774 2.03663 8.40024C1.99828 8.54798 1.90718 8.67659 1.78053 8.76179C1.65388 8.84699 1.50043 8.8829 1.34913 8.86274Z" fill="#F47C0C"/>
<path d="M10.237 19.3754C8.09285 19.4368 5.99252 18.7612 4.2864 17.4611C2.58029 16.161 1.37158 14.3152 0.861956 12.2317C0.83891 12.1473 0.833808 12.0591 0.84698 11.9727C0.860151 11.8863 0.891304 11.8036 0.938424 11.73C0.985545 11.6564 1.04759 11.5934 1.12054 11.5453C1.19349 11.4971 1.27574 11.4648 1.36196 11.4504C1.51584 11.415 1.67742 11.4391 1.81424 11.518C1.95105 11.5968 2.05295 11.7245 2.09946 11.8754C2.52042 13.658 3.53132 15.246 4.96816 16.3819C6.40501 17.5178 8.18349 18.1349 10.0151 18.133C11.8467 18.1312 13.6239 17.5105 15.0585 16.3718C16.4931 15.233 17.5008 13.643 17.9182 11.8596C18.3356 10.0762 18.1381 8.20407 17.3579 6.54696C16.5777 4.88986 15.2605 3.54498 13.6199 2.73052C11.9794 1.91606 10.1118 1.67979 8.32008 2.06006C6.5284 2.44033 4.91776 3.41481 3.74946 4.82542C3.64698 4.94101 3.50533 5.01455 3.35183 5.03186C3.19833 5.04917 3.04385 5.00903 2.91821 4.91917C2.84609 4.86984 2.78511 4.80595 2.73922 4.7316C2.69332 4.65726 2.66352 4.57412 2.65174 4.48754C2.63996 4.40097 2.64647 4.31289 2.67083 4.22898C2.6952 4.14508 2.73689 4.06721 2.79321 4.00042C4.05074 2.48254 5.75471 1.39964 7.66293 0.905641C9.57116 0.41164 11.5865 0.531669 13.4226 1.24867C15.2587 1.96567 16.8221 3.24316 17.8906 4.89957C18.9591 6.55597 19.4783 8.50703 19.3745 10.4754C19.2382 12.8321 18.2249 15.0525 16.5338 16.6996C14.8427 18.3467 12.5964 19.3013 10.237 19.3754Z" fill="#F47C0C"/>
<path d="M14.4242 9.375H5.57422C5.22904 9.375 4.94922 9.65482 4.94922 10C4.94922 10.3452 5.22904 10.625 5.57422 10.625H14.4242C14.7694 10.625 15.0492 10.3452 15.0492 10C15.0492 9.65482 14.7694 9.375 14.4242 9.375Z" fill="#F47C0C"/>
</svg>
